# xmcd
#
# Track frame offsets: 
#        150
#        14295
#        31005
#        47692
#        60442
#        74632
#        88135
#        101225
#        115117
#        136945
#
# Disc length: 2020 seconds
#
# Revision: 2
# Processed by: cddbd v1.5.1PL0 Copyright (c) Steve Scherf et al.
# Submitted via: ExactAudioCopy v0.95a5
#
DISCID=8207e20a
DTITLE=Lee Greenwood - Lee Greenwood Super Hits
DYEAR=1996
DGENRE=Country
TTITLE0=Dixie Road
TTITLE1=Ring On Her Finger
TTITLE2=Somebody Gonna Love You
TTITLE3=Touch And Go Crazy
TTITLE4=I.O.U.
TTITLE5=Hearts Aren't Made To Break
TTITLE6=Oh Holy Night
TTITLE7=Amazing Grace
TTITLE8=How Great Thou
TTITLE9=God Bless The Usa
EXTD=
EXTT0=
EXTT1=
EXTT2=
EXTT3=
EXTT4=
EXTT5=
EXTT6=
EXTT7=
EXTT8=
EXTT9=
PLAYORDER=
